My Week with Marilyn (2011) 1080p MKV X264 AC3+DTS MultiSubs
.
Subs: Dutch, English FHI, English normal, Romanian, Spanish, Swedish
.
[IMG]http://img16.imageshack.us/img16/6060/iamkgaadm.jpg[/IMG]
.
Verenigd Koninkrijk
Drama
100 minuten

geregisseerd door Simon Curtis
met Michelle Williams, Kenneth Branagh en Judi Dench

In de zomer van 1956 werkte de 23-jarige Colin Clark, die net van Oxford komt en vastbesloten is om carrière te maken in de filmwereld, als assistent op de set van ‘The Prince and the Showgirl’, de film die Sir Laurence Olivier en Marilyn Monroe verenigde. Deze laatste was ook op huwelijksreis met haar nieuwe man, scenarioschrijver Arthur Miller. Wanneer Arthur Miller Engeland verlaat ligt de weg vrij voor Colin om Marilyn kennis te laten maken met de geneugten van het Britse leven: een idyllische week waarin hij Monroe mocht escorteren, Monroe die wanhopig weg wilde zijn van haar Hollywood-aanhangers en de druk van het werk.

Momenteel te zien in 16 bioscopen 
. 
http://www.moviemeter.nl/film/72212
.
PLOT
.
Colin Clark, an employee of Sir Laurence Olivier's, documents the tense interaction between Olivier and Marilyn Monroe during production of The Prince and the Showgirl. 
. 
http://www.imdb.com/title/tt1655420/
.
INFO
.
NL Vertaling: One2Sub (Geen gezeur over de onertiteling graag)(Vertalers staan als google vertalers bekend)
Gaan wel al iets vooruit, maar je zult hier en daar rare - onlogische zinsvertalingen zien.
2de helft van deze sub ziet er redelijk uit, de eerste helft valt gewoon tegen.
.
Format                           : Matroska
Format version                   : Version 2
File size                        : 8.39 GiB
Duration                         : 1h 38mn
Overall bit rate                 : 12.1 Mbps
Encoded date                     : UTC 2012-02-26 16:53:41
Writing application              : mkvmerge v5.2.1 ('A Far Off Place') built on Jan  2 2012 23:21:10
Writing library                  : libebml v1.2.3 + libmatroska v1.3.0

Video
ID                               : 1
Format                           : AVC
Format/Info                      : Advanced Video Codec
Format profile                   : High@L4.1
Format settings, CABAC           : Yes
Format settings, ReFrames        : 5 frames
Codec ID                         : V_MPEG4/ISO/AVC
Duration                         : 1h 38mn
Bit rate                         : 9 991 Kbps
Width                            : 1 920 pixels
Height                           : 816 pixels
Display aspect ratio             : 2.35:1
Frame rate                       : 23.976 fps
Color space                      : YUV
Chroma subsampling               : 4:2:0
Bit depth                        : 8 bits
Scan type                        : Progressive
Bits/(Pixel*Frame)               : 0.266
Stream size                      : 6.73 GiB (80%)
Writing library                  : x264 core 120 r2164 da19765
Encoding settings                : cabac=1 / ref=5 / deblock=1:0:0 / analyse=0x3:0x133 / me=umh / subme=7 / psy=1 / psy_rd=1.00:0.00 / mixed_ref=1 / me_range=16 / chroma_me=1 / trellis=1 / 8x8dct=1 / cqm=0 / deadzone=21,11 / fast_pskip=0 / chroma_qp_offset=-2 / threads=18 / sliced_threads=0 / nr=0 / decimate=1 / interlaced=0 / bluray_compat=0 / constrained_intra=0 / bframes=3 / b_pyramid=2 / b_adapt=1 / b_bias=0 / direct=1 / weightb=1 / open_gop=0 / weightp=2 / keyint=240 / keyint_min=23 / scenecut=40 / intra_refresh=0 / rc_lookahead=40 / rc=2pass / mbtree=1 / bitrate=9991 / ratetol=1.0 / qcomp=0.60 / qpmin=10 / qpmax=51 / qpstep=4 / cplxblur=20.0 / qblur=0.5 / ip_ratio=1.40 / aq=1:1.00
Default                          : Yes
Forced                           : No

Audio #1
ID                               : 2
Format                           : DTS
Format/Info                      : Digital Theater Systems
Codec ID                         : A_DTS
Duration                         : 1h 38mn
Bit rate mode                    : Constant
Bit rate                         : 1 510 Kbps
Channel(s)                       : 6 channels
Channel positions                : Front: L C R, Side: L R, LFE
Sampling rate                    : 48.0 KHz
Bit depth                        : 24 bits
Compression mode                 : Lossy
Stream size                      : 1.04 GiB (12%)
Title                            : DTS
Language                         : English
Default                          : Yes
Forced                           : No

Audio #2
ID                               : 3
Format                           : AC-3
Format/Info                      : Audio Coding 3
Mode extension                   : CM (complete main)
Codec ID                         : A_AC3
Duration                         : 1h 38mn
Bit rate mode                    : Constant
Bit rate                         : 640 Kbps
Channel(s)                       : 6 channels
Channel positions                : Front: L C R, Side: L R, LFE
Sampling rate                    : 48.0 KHz
Bit depth                        : 16 bits
Compression mode                 : Lossy
Stream size                      : 453 MiB (5%)
Title                            : AC3
Language                         : English
Default                          : No
Forced                           : No

Text #1
ID                               : 4
Format                           : UTF-8
Codec ID                         : S_TEXT/UTF8
Codec ID/Info                    : UTF-8 Plain Text
Title                            : One2Sub-Team
Language                         : Dutch
Default                          : No
Forced                           : No

Text #2
ID                               : 5
Format                           : UTF-8
Codec ID                         : S_TEXT/UTF8
Codec ID/Info                    : UTF-8 Plain Text
Title                            : English FHI
Language                         : English
Default                          : No
Forced                           : No

Text #3
ID                               : 6
Format                           : UTF-8
Codec ID                         : S_TEXT/UTF8
Codec ID/Info                    : UTF-8 Plain Text
Title                            : English also with the music text
Language                         : English
Default                          : No
Forced                           : No

Text #4
ID                               : 7
Format                           : UTF-8
Codec ID                         : S_TEXT/UTF8
Codec ID/Info                    : UTF-8 Plain Text
Language                         : Romanian
Default                          : No
Forced                           : No

Text #5
ID                               : 8
Format                           : UTF-8
Codec ID                         : S_TEXT/UTF8
Codec ID/Info                    : UTF-8 Plain Text
Language                         : Spanish
Default                          : No
Forced                           : No

Text #6
ID                               : 9
Format                           : UTF-8
Codec ID                         : S_TEXT/UTF8
Codec ID/Info                    : UTF-8 Plain Text
Language                         : Swedish
Default                          : No
Forced                           : No

Menu
00:00:00.000                     : en:00:00:00.000
00:05:16.775                     : en:00:05:16.775
00:11:58.259                     : en:00:11:58.259
00:15:39.730                     : en:00:15:39.730
00:20:12.336                     : en:00:20:12.336
00:25:29.111                     : en:00:25:29.111
00:31:44.903                     : en:00:31:44.903
00:37:32.292                     : en:00:37:32.292
00:43:30.775                     : en:00:43:30.775
00:47:12.496                     : en:00:47:12.496
00:53:12.022                     : en:00:53:12.022
01:00:35.173                     : en:01:00:35.173
01:07:16.407                     : en:01:07:16.407
01:14:25.961                     : en:01:14:25.961
01:21:44.775                     : en:01:21:44.775
01:25:18.947                     : en:01:25:18.947
01:28:23.924                     : en:01:28:23.924
01:32:17.699                     : en:01:32:17.699

